<svg width="32" height="32" viewBox="0 0 32 32" fill="none" xmlns="http://www.w3.org/2000/svg">
<path d="M4 2C1.79375 2 0 3.79375 0 6V26C0 28.2062 1.79375 30 4 30H28C30.2062 30 32 28.2062 32 26V6C32 3.79375 30.2062 2 28 2H4ZM10.9375 10.9375C11.525 10.35 12.475 10.35 13.0562 10.9375L15.9937 13.875L18.9312 10.9375C19.5187 10.35 20.4687 10.35 21.05 10.9375C21.6312 11.525 21.6375 12.475 21.05 13.0562L18.1125 15.9937L21.05 18.9312C21.6375 19.5187 21.6375 20.4687 21.05 21.05C20.4625 21.6312 19.5125 21.6375 18.9312 21.05L15.9937 18.1125L13.0562 21.05C12.4687 21.6375 11.5188 21.6375 10.9375 21.05C10.3562 20.4625 10.35 19.5125 10.9375 18.9312L13.875 15.9937L10.9375 13.0562C10.35 12.4687 10.35 11.5188 10.9375 10.9375Z" fill="#49BEB7"/>
</svg>
