<svg width="32" height="28" viewBox="0 0 32 28" fill="none" xmlns="http://www.w3.org/2000/svg">
<path d="M4 0C1.79375 0 0 1.79375 0 4V24C0 26.2062 1.79375 28 4 28H28C30.2062 28 32 26.2062 32 24V4C32 1.79375 30.2062 0 28 0H4ZM10.9375 8.9375C11.525 8.35 12.475 8.35 13.0562 8.9375L15.9937 11.875L18.9312 8.9375C19.5187 8.35 20.4687 8.35 21.05 8.9375C21.6312 9.525 21.6375 10.475 21.05 11.0562L18.1125 13.9937L21.05 16.9312C21.6375 17.5187 21.6375 18.4687 21.05 19.05C20.4625 19.6312 19.5125 19.6375 18.9312 19.05L15.9937 16.1125L13.0562 19.05C12.4687 19.6375 11.5188 19.6375 10.9375 19.05C10.3562 18.4625 10.35 17.5125 10.9375 16.9312L13.875 13.9937L10.9375 11.0562C10.35 10.4687 10.35 9.51875 10.9375 8.9375Z" fill="#FF8A5C"/>
</svg>
