<svg width="25" height="25" viewBox="0 0 25 25" fill="none" xmlns="http://www.w3.org/2000/svg">
<g clip-path="url(#clip0_52_98)">
<path fill-rule="evenodd" clip-rule="evenodd" d="M20.5859 10.7275L20.0342 11.2793L18.9307 12.3877L9.2041 22.1143C8.69629 22.6221 8.0664 22.9932 7.37793 23.1982L1.5039 24.9268C1.09375 25.0439 0.654293 24.9316 0.346676 24.6289C0.0390587 24.3262 -0.073246 23.8818 0.0488243 23.4717L1.77734 17.5928C1.98242 16.9043 2.35351 16.2744 2.86132 15.7666L14.2432 4.38477L20.5859 10.7275ZM14.2432 5.79898L3.56843 16.4737C3.18102 16.8611 2.89498 17.3446 2.73621 17.8766C2.73605 17.8772 2.73589 17.8777 2.73573 17.8782L1.00728 23.7569C0.990139 23.8145 1.00568 23.8744 1.0481 23.9162C1.10039 23.9676 1.16672 23.9823 1.22706 23.9658L7.09245 22.2399C7.09298 22.2397 7.09351 22.2395 7.09404 22.2394C7.62611 22.0806 8.10957 21.7946 8.49699 21.4071L18.2236 11.6806L19.1721 10.7279L16.5676 8.12344C16.7169 8.71249 16.5619 9.36402 16.1026 9.82332L9.07136 16.8546C8.3781 17.5478 7.24689 17.5478 6.55363 16.8546C6.52408 16.825 6.49578 16.7947 6.46875 16.7636V18.5068H7.8125V19.309L8.8125 19.502V20.5068H8.48702L8.19533 21.2345L7.98073 21.4008C7.68696 21.6284 7.35979 21.7946 7.01702 21.9017L7.00899 21.9043L1.42299 23.5472L3.06316 17.9777C3.1702 17.6054 3.3508 17.2704 3.57752 16.9852L3.74236 16.7778L6.05202 15.8519C5.97471 15.3147 6.14192 14.7486 6.55363 14.3368L13.5849 7.30559C14.0442 6.84629 14.6957 6.69129 15.2848 6.84058L14.2432 5.79898ZM4.02343 18.2568L2.90039 22.0703L6.71875 20.9473C6.95312 20.874 7.17285 20.7617 7.36816 20.6103L7.81054 19.5068H6.25C5.82031 19.5068 5.46875 19.1553 5.46875 18.7256V17.1631L4.36035 17.6074C4.20898 17.7978 4.09179 18.0176 4.02343 18.2568ZM15.3467 3.27637L15.9033 2.72461L17.0068 1.62109L17.71 0.913086H17.7148C18.9355 -0.307617 20.9131 -0.307617 22.1338 0.913086L24.0527 2.83691C25.2734 4.05762 25.2734 6.03516 24.0527 7.25586L21.6895 9.61914L15.3467 3.27637ZM16.7633 3.27881L21.6894 8.20493L23.3456 6.54875C24.1758 5.71857 24.1758 4.3742 23.3456 3.54402L23.3447 3.54312L21.4267 1.62019C20.5965 0.790014 19.2521 0.790014 18.4219 1.62019L18.1291 1.91309H18.1262L17.7139 2.3282L16.7633 3.27881ZM8.36425 16.1475L15.3955 9.11621C15.6982 8.81348 15.6982 8.31543 15.3955 8.0127C15.0928 7.70996 14.5947 7.70996 14.292 8.0127L7.26074 15.0439C6.958 15.3467 6.958 15.8447 7.26074 16.1475C7.56347 16.4502 8.06152 16.4502 8.36425 16.1475Z" fill="#023E8A"/>
</g>
<defs>
<clipPath id="clip0_52_98">
<rect width="25" height="25" fill="white"/>
</clipPath>
</defs>
</svg>
