<svg width="32" height="32" viewBox="0 0 32 32" fill="none" xmlns="http://www.w3.org/2000/svg">
<g clip-path="url(#clip0_81_133)">
<path d="M25.6438 14.4375L26.3501 13.7313L24.2313 11.6125L20.3501 7.73126L18.2313 5.61251L17.5251 6.31876L16.1126 7.73126L3.66256 20.1813C3.01256 20.8313 2.53756 21.6375 2.27506 22.5188L0.0625586 30.0438C-0.0936914 30.5688 0.0500586 31.1375 0.443809 31.525C0.837559 31.9125 1.40006 32.0563 1.92506 31.9063L9.44381 29.6938C10.3251 29.4313 11.1313 28.9563 11.7813 28.3063L24.2313 15.8563L25.6438 14.4375ZM10.0001 24.9625L9.43131 26.3813C9.18131 26.575 8.90006 26.7188 8.60006 26.8125L3.71256 28.25L5.15006 23.3688C5.23756 23.0625 5.38756 22.7813 5.58131 22.5375L7.00006 21.9688V23.9688C7.00006 24.5188 7.45006 24.9688 8.00006 24.9688H10.0001V24.9625ZM22.6688 1.16876L21.7688 2.07501L20.3563 3.48751L19.6438 4.19376L21.7626 6.31251L25.6438 10.1938L27.7626 12.3125L28.4688 11.6063L29.8813 10.1938L30.7876 9.28751C32.3501 7.72501 32.3501 5.19376 30.7876 3.63126L28.3313 1.16876C26.7688 -0.393738 24.2376 -0.393738 22.6751 1.16876H22.6688ZM19.7063 11.6688L10.7063 20.6688C10.3188 21.0563 9.68131 21.0563 9.29381 20.6688C8.90631 20.2813 8.90631 19.6438 9.29381 19.2563L18.2938 10.2563C18.6813 9.86876 19.3188 9.86876 19.7063 10.2563C20.0938 10.6438 20.0938 11.2813 19.7063 11.6688Z" fill="#FF8A5C"/>
</g>
<defs>
<clipPath id="clip0_81_133">
<rect width="32" height="32" fill="white"/>
</clipPath>
</defs>
</svg>
