<svg width="25" height="25" viewBox="0 0 25 25" fill="none" xmlns="http://www.w3.org/2000/svg">
<g clip-path="url(#clip0_52_96)">
<path fill-rule="evenodd" clip-rule="evenodd" d="M22.2335 8.23526C21.1024 7.10418 19.5683 6.46875 17.9687 6.46875C16.3692 6.46875 14.8351 7.10418 13.704 8.23526C12.5729 9.36634 11.9375 10.9004 11.9375 12.5C11.9375 14.0996 12.5729 15.6337 13.704 16.7647C14.8351 17.8958 16.3692 18.5312 17.9687 18.5312C19.5683 18.5312 21.1024 17.8958 22.2335 16.7647C23.3646 15.6337 24 14.0996 24 12.5C24 10.9004 23.3646 9.36634 22.2335 8.23526ZM21.875 14.2812C20.893 14.2812 20.0937 13.482 20.0937 12.5C20.0937 11.3287 19.1401 10.375 17.9687 10.375C16.9868 10.375 16.1875 9.57572 16.1875 8.59375C16.1875 7.61178 16.9868 6.8125 17.9687 6.8125C21.1089 6.8125 23.6562 9.35982 23.6562 12.5C23.6562 13.482 22.857 14.2812 21.875 14.2812ZM8.39133 11.9375L1.5625 11.9375C1.25053 11.9375 1 12.188 1 12.5C1 12.812 1.25053 13.0625 1.5625 13.0625L8.39133 13.0625C8.3805 12.8762 8.375 12.6887 8.375 12.5C8.375 12.3113 8.3805 12.1238 8.39133 11.9375ZM1.5625 10.9375C0.698242 10.9375 -2.69568e-07 11.6357 -3.07346e-07 12.5C-3.45124e-07 13.3643 0.698242 14.0625 1.5625 14.0625L9.5166 14.0625C9.45674 13.7348 9.41517 13.4011 9.39321 13.0625C9.38114 12.8764 9.375 12.6888 9.375 12.5C9.375 12.3112 9.38114 12.1236 9.39321 11.9375C9.41517 11.5989 9.45674 11.2652 9.5166 10.9375L1.5625 10.9375ZM22.9406 7.52816C21.622 6.20954 19.8336 5.46875 17.9688 5.46875C16.1039 5.46875 14.3155 6.20954 12.9969 7.52816C11.6783 8.84677 10.9375 10.6352 10.9375 12.5C10.9375 14.3648 11.6783 16.1532 12.9969 17.4718C14.3155 18.7905 16.1039 19.5312 17.9687 19.5312C19.8336 19.5312 21.622 18.7905 22.9406 17.4718C24.2592 16.1532 25 14.3648 25 12.5C25 10.6352 24.2592 8.84677 22.9406 7.52816ZM21.875 13.2812C21.4453 13.2812 21.0937 12.9297 21.0937 12.5C21.0937 10.7764 19.6924 9.375 17.9687 9.375C17.5391 9.375 17.1875 9.02344 17.1875 8.59375C17.1875 8.16406 17.5391 7.8125 17.9687 7.8125C20.5566 7.8125 22.6562 9.91211 22.6562 12.5C22.6562 12.9297 22.3047 13.2812 21.875 13.2812Z" fill="#BADFDB"/>
</g>
<defs>
<clipPath id="clip0_52_96">
<rect width="25" height="25" fill="white" transform="translate(25) rotate(90)"/>
</clipPath>
</defs>
</svg>
