<svg width="15" height="25" viewBox="0 0 15 25" fill="none" xmlns="http://www.w3.org/2000/svg">
<path d="M0.46875 7.03125C0.46875 5.16645 1.20954 3.37802 2.52816 2.05941C3.84677 0.74079 5.6352 0 7.5 0C9.3648 0 11.1532 0.74079 12.4718 2.05941C13.7905 3.37802 14.5312 5.16645 14.5313 7.03125C14.5312 8.89605 13.7905 10.6845 12.4718 12.0031C11.1532 13.3217 9.3648 14.0625 7.5 14.0625C5.6352 14.0625 3.84677 13.3217 2.52816 12.0031C1.20954 10.6845 0.46875 8.89605 0.46875 7.03125ZM7.5 3.90625C7.92969 3.90625 8.28125 3.55469 8.28125 3.125C8.28125 2.69531 7.92969 2.34375 7.5 2.34375C4.91211 2.34375 2.8125 4.44336 2.8125 7.03125C2.8125 7.46094 3.16406 7.8125 3.59375 7.8125C4.02344 7.8125 4.375 7.46094 4.375 7.03125C4.375 5.30762 5.77637 3.90625 7.5 3.90625ZM5.9375 23.4375L5.9375 15.4834C6.44531 15.5762 6.96777 15.625 7.5 15.625C8.03223 15.625 8.55469 15.5762 9.0625 15.4834L9.0625 23.4375C9.0625 24.3018 8.36426 25 7.5 25C6.63574 25 5.9375 24.3018 5.9375 23.4375Z" fill="#49BEB7"/>
</svg>
