<svg width="20" height="18" viewBox="0 0 20 18" fill="none" xmlns="http://www.w3.org/2000/svg">
<path d="M11.0035 0.736084C10.8194 0.35414 10.4306 0.111084 10.0035 0.111084C9.57639 0.111084 9.19097 0.35414 9.00347 0.736084L6.77083 5.32983L1.78472 6.06594C1.36806 6.12844 1.02083 6.42011 0.892361 6.81942C0.763889 7.21872 0.868055 7.65969 1.16667 7.95483L4.78472 11.5347L3.93056 16.5937C3.86111 17.0104 4.03472 17.434 4.37847 17.6805C4.72222 17.9271 5.17708 17.9583 5.55208 17.7604L10.0069 15.3819L14.4618 17.7604C14.8368 17.9583 15.2917 17.9305 15.6354 17.6805C15.9792 17.4305 16.1528 17.0104 16.0833 16.5937L15.2257 11.5347L18.8438 7.95483C19.1424 7.65969 19.25 7.21872 19.1181 6.81942C18.9861 6.42011 18.6424 6.12844 18.2257 6.06594L13.2361 5.32983L11.0035 0.736084Z" fill="#FF8A5C"/>
</svg>
