<svg width="20" height="20" viewBox="0 0 20 20" fill="none" xmlns="http://www.w3.org/2000/svg">
<path fill-rule="evenodd" clip-rule="evenodd" d="M10.1026 2.17015C10.0868 2.13745 10.0501 2.11108 10.0035 2.11108C9.96199 2.11108 9.92282 2.13336 9.90156 2.17591C9.90142 2.17619 9.9017 2.17563 9.90156 2.17591L7.43937 7.24198L1.93306 8.05488C1.93287 8.05491 1.93325 8.05485 1.93306 8.05488C1.88676 8.06205 1.85456 8.0938 1.8443 8.12569C1.82924 8.17253 1.84406 8.21833 1.86963 8.2436L5.85722 12.1891L4.91695 17.7581C4.91692 17.7583 4.91697 17.758 4.91695 17.7581C4.91003 17.8008 4.92911 17.8448 4.96126 17.8679C4.99654 17.8932 5.04447 17.8971 5.08428 17.8765C5.08463 17.8764 5.08498 17.8762 5.08532 17.876L10.0069 15.2483L14.9286 17.876C14.9289 17.8762 14.9293 17.8764 14.9297 17.8766C14.9748 17.8999 15.0192 17.8922 15.0472 17.8718C15.0879 17.8422 15.1032 17.7974 15.0971 17.7588C15.097 17.7586 15.0971 17.759 15.0971 17.7588L14.1529 12.1894L18.1404 8.24398C18.1706 8.2141 18.1805 8.16926 18.1686 8.13317C18.1542 8.08983 18.1189 8.06133 18.078 8.05497C18.0778 8.05494 18.0782 8.055 18.078 8.05497L12.5676 7.24203L10.1026 2.17015ZM14.4618 18.7604L10.0069 16.3819L5.55208 18.7604C5.17708 18.9583 4.72222 18.9271 4.37847 18.6805C4.03472 18.434 3.86111 18.0104 3.93056 17.5937L4.78472 12.5347L1.16667 8.95483C0.868055 8.65969 0.763889 8.21872 0.892361 7.81942C1.02083 7.42011 1.36806 7.12844 1.78472 7.06594L6.77083 6.32983L9.00347 1.73608C9.19097 1.35414 9.57639 1.11108 10.0035 1.11108C10.4306 1.11108 10.8194 1.35414 11.0035 1.73608L13.2361 6.32983L18.2257 7.06594C18.6424 7.12844 18.9861 7.42011 19.1181 7.81942C19.25 8.21872 19.1424 8.65969 18.8438 8.95483L15.2257 12.5347L16.0833 17.5937C16.1528 18.0104 15.9792 18.4305 15.6354 18.6805C15.2917 18.9305 14.8368 18.9583 14.4618 18.7604Z" fill="#FF8A5C" fill-opacity="0.4"/>
</svg>
