<svg width="25" height="25" viewBox="0 0 25 25" fill="none" xmlns="http://www.w3.org/2000/svg">
<path fill-rule="evenodd" clip-rule="evenodd" d="M9.05724 1.31397L8.42861 2.5625H3.125C2.81303 2.5625 2.5625 2.81303 2.5625 3.125C2.5625 3.43697 2.81303 3.6875 3.125 3.6875H21.875C22.187 3.6875 22.4375 3.43697 22.4375 3.125C22.4375 2.81303 22.187 2.5625 21.875 2.5625H16.5714L15.9399 1.30819C15.8466 1.12005 15.6541 1 15.4395 1H9.56055C9.3459 1 9.15333 1.12004 9.06013 1.30818L9.05724 1.31397ZM7.8125 1.5625H3.125C2.26074 1.5625 1.5625 2.26074 1.5625 3.125C1.5625 3.98926 2.26074 4.6875 3.125 4.6875H21.875C22.7393 4.6875 23.4375 3.98926 23.4375 3.125C23.4375 2.26074 22.7393 1.5625 21.875 1.5625H17.1875L16.8359 0.864258C16.5723 0.332031 16.0303 0 15.4395 0H9.56055C8.96973 0 8.42773 0.332031 8.16406 0.864258L7.8125 1.5625ZM20.875 7.25H4.125V21.875C4.125 23.0463 5.07865 24 6.25 24H18.75C19.9213 24 20.875 23.0463 20.875 21.875V7.25ZM6.03125 10.1562C6.03125 9.17428 6.83053 8.375 7.8125 8.375C8.79447 8.375 9.59375 9.17428 9.59375 10.1562V21.0938C9.59375 22.0757 8.79447 22.875 7.8125 22.875C6.83053 22.875 6.03125 22.0757 6.03125 21.0938V10.1562ZM10.7188 10.1562C10.7188 9.17428 11.518 8.375 12.5 8.375C13.482 8.375 14.2812 9.17428 14.2812 10.1562V21.0938C14.2812 22.0757 13.482 22.875 12.5 22.875C11.518 22.875 10.7188 22.0757 10.7188 21.0938V10.1562ZM15.4062 10.1562C15.4062 9.17428 16.2055 8.375 17.1875 8.375C18.1695 8.375 18.9688 9.17428 18.9688 10.1562V21.0938C18.9688 22.0757 18.1695 22.875 17.1875 22.875C16.2055 22.875 15.4062 22.0757 15.4062 21.0938V10.1562ZM3.125 6.25V21.875C3.125 23.5986 4.52637 25 6.25 25H18.75C20.4736 25 21.875 23.5986 21.875 21.875V6.25H3.125ZM7.03125 10.1562C7.03125 9.72656 7.38281 9.375 7.8125 9.375C8.24219 9.375 8.59375 9.72656 8.59375 10.1562V21.0938C8.59375 21.5234 8.24219 21.875 7.8125 21.875C7.38281 21.875 7.03125 21.5234 7.03125 21.0938V10.1562ZM11.7188 10.1562C11.7188 9.72656 12.0703 9.375 12.5 9.375C12.9297 9.375 13.2812 9.72656 13.2812 10.1562V21.0938C13.2812 21.5234 12.9297 21.875 12.5 21.875C12.0703 21.875 11.7188 21.5234 11.7188 21.0938V10.1562ZM16.4062 10.1562C16.4062 9.72656 16.7578 9.375 17.1875 9.375C17.6172 9.375 17.9688 9.72656 17.9688 10.1562V21.0938C17.9688 21.5234 17.6172 21.875 17.1875 21.875C16.7578 21.875 16.4062 21.5234 16.4062 21.0938V10.1562Z" fill="#023E8A"/>
</svg>
